<svg xmlns="http://www.w3.org/2000/svg" width="213.10999999999999" height="35" viewBox="0 0 213.10999999999999 35"><rect class="svg__rect" x="0" y="0" width="127.25" height="35" fill="#31C4F3"/><rect class="svg__rect" x="125.25" y="0" width="87.85999999999999" height="35" fill="#389AD5"/><path class="svg__text" d="M15.70 22L14.22 22L14.22 13.47L17.48 13.47Q18.91 13.47 19.75 14.21Q20.59 14.96 20.59 16.18L20.59 16.18Q20.59 17.44 19.77 18.13Q18.95 18.83 17.46 18.83L17.46 18.83L15.70 18.83L15.70 22ZM15.70 14.66L15.70 17.64L17.48 17.64Q18.27 17.64 18.69 17.27Q19.10 16.90 19.10 16.19L19.10 16.19Q19.10 15.50 18.68 15.09Q18.26 14.68 17.52 14.66L17.52 14.66L15.70 14.66ZM24.61 18.00L24.61 18.00L24.61 17.52Q24.61 16.28 25.05 15.32Q25.49 14.37 26.30 13.86Q27.10 13.35 28.14 13.35Q29.19 13.35 29.99 13.85Q30.80 14.35 31.24 15.29Q31.68 16.23 31.68 17.48L31.68 17.48L31.68 17.96Q31.68 19.21 31.25 20.16Q30.82 21.10 30.01 21.61Q29.21 22.12 28.16 22.12L28.16 22.12Q27.12 22.12 26.31 21.61Q25.50 21.10 25.05 20.17Q24.61 19.23 24.61 18.00ZM26.09 17.46L26.09 17.96Q26.09 19.36 26.64 20.13Q27.18 20.90 28.16 20.90L28.16 20.90Q29.14 20.90 29.67 20.15Q30.20 19.40 30.20 17.96L30.20 17.96L30.20 17.51Q30.20 16.09 29.67 15.34Q29.13 14.58 28.14 14.58L28.14 14.58Q27.18 14.58 26.64 15.33Q26.10 16.09 26.09 17.46L26.09 17.46ZM37.53 22L35.56 13.47L37.03 13.47L38.36 19.88L39.99 13.47L41.23 13.47L42.84 19.89L44.15 13.47L45.62 13.47L43.65 22L42.24 22L40.61 15.77L38.96 22L37.53 22ZM55.27 22L49.70 22L49.70 13.47L55.23 13.47L55.23 14.66L51.18 14.66L51.18 17.02L54.68 17.02L54.68 18.19L51.18 18.19L51.18 20.82L55.27 20.82L55.27 22ZM60.95 22L59.47 22L59.47 13.47L62.47 13.47Q63.95 13.47 64.75 14.13Q65.55 14.79 65.55 16.05L65.55 16.05Q65.55 16.90 65.14 17.48Q64.72 18.06 63.99 18.37L63.99 18.37L65.90 21.92L65.90 22L64.31 22L62.60 18.71L60.95 18.71L60.95 22ZM60.95 14.66L60.95 17.52L62.48 17.52Q63.23 17.52 63.65 17.15Q64.07 16.77 64.07 16.11L64.07 16.11Q64.07 15.43 63.68 15.05Q63.29 14.68 62.52 14.66L62.52 14.66L60.95 14.66ZM75.52 22L69.95 22L69.95 13.47L75.48 13.47L75.48 14.66L71.43 14.66L71.43 17.02L74.93 17.02L74.93 18.19L71.43 18.19L71.43 20.82L75.52 20.82L75.52 22ZM82.17 22L79.72 22L79.72 13.47L82.24 13.47Q83.37 13.47 84.25 13.97Q85.12 14.48 85.60 15.40Q86.08 16.33 86.08 17.52L86.08 17.52L86.08 17.95Q86.08 19.16 85.60 20.08Q85.12 21.00 84.22 21.50Q83.33 22 82.17 22L82.17 22ZM81.20 14.66L81.20 20.82L82.17 20.82Q83.33 20.82 83.96 20.09Q84.58 19.36 84.59 17.99L84.59 17.99L84.59 17.52Q84.59 16.13 83.99 15.40Q83.39 14.66 82.24 14.66L82.24 14.66L81.20 14.66ZM99.64 22L96.52 22L96.52 13.47L99.45 13.47Q100.89 13.47 101.65 14.05Q102.41 14.63 102.41 15.78L102.41 15.78Q102.41 16.36 102.09 16.83Q101.77 17.30 101.16 17.56L101.16 17.56Q101.86 17.75 102.23 18.26Q102.61 18.78 102.61 19.51L102.61 19.51Q102.61 20.71 101.84 21.36Q101.07 22 99.64 22L99.64 22ZM98.01 18.15L98.01 20.82L99.65 20.82Q100.35 20.82 100.74 20.47Q101.14 20.13 101.14 19.51L101.14 19.51Q101.14 18.18 99.78 18.15L99.78 18.15L98.01 18.15ZM98.01 14.66L98.01 17.06L99.46 17.06Q100.15 17.06 100.54 16.75Q100.93 16.43 100.93 15.86L100.93 15.86Q100.93 15.23 100.57 14.95Q100.21 14.66 99.45 14.66L99.45 14.66L98.01 14.66ZM109.12 18.86L106.26 13.47L107.90 13.47L109.87 17.51L111.83 13.47L113.47 13.47L110.61 18.86L110.61 22L109.12 22L109.12 18.86Z" fill="#FFFFFF"/><path class="svg__text" d="M142.02 22L138.43 13.60L141.00 13.60L143.28 19.07L145.61 13.60L147.96 13.60L144.36 22L142.02 22ZM152.04 18.26L152.04 18.26L152.04 13.60L154.42 13.60L154.42 18.19Q154.42 20.20 156.01 20.20L156.01 20.20Q157.60 20.20 157.60 18.19L157.60 18.19L157.60 13.60L159.94 13.60L159.94 18.26Q159.94 20.13 158.90 21.15Q157.86 22.17 155.99 22.17L155.99 22.17Q154.12 22.17 153.08 21.15Q152.04 20.13 152.04 18.26ZM171.77 22L165.03 22L165.03 13.60L171.62 13.60L171.62 15.44L167.38 15.44L167.38 16.85L171.11 16.85L171.11 18.63L167.38 18.63L167.38 20.17L171.77 20.17L171.77 22ZM176.06 20.75L176.06 20.75Q176.06 20.15 176.45 19.78Q176.84 19.41 177.43 19.41L177.43 19.41Q178.03 19.41 178.41 19.78Q178.80 20.15 178.80 20.75L178.80 20.75Q178.80 21.34 178.41 21.72Q178.02 22.11 177.43 22.11L177.43 22.11Q176.85 22.11 176.45 21.72Q176.06 21.34 176.06 20.75ZM182.38 20.93L182.38 20.93L183.67 19.40Q184.34 20.27 185.11 20.27L185.11 20.27Q185.12 20.27 185.12 20.27L185.12 20.27Q185.64 20.27 185.91 19.96Q186.18 19.65 186.18 19.05L186.18 19.05L186.18 15.44L183.28 15.44L183.28 13.60L188.53 13.60L188.53 18.91Q188.53 20.54 187.71 21.36Q186.89 22.17 185.29 22.17L185.29 22.17Q184.37 22.17 183.61 21.85Q182.86 21.53 182.38 20.93ZM193.03 21.24L193.03 21.24L193.81 19.49Q194.38 19.86 195.12 20.09Q195.86 20.32 196.58 20.32L196.58 20.32Q197.95 20.32 197.96 19.64L197.96 19.64Q197.96 19.28 197.57 19.11Q197.18 18.93 196.31 18.74L196.31 18.74Q195.36 18.53 194.72 18.30Q194.09 18.06 193.63 17.55Q193.18 17.03 193.18 16.16L193.18 16.16Q193.18 15.39 193.60 14.77Q194.02 14.15 194.85 13.79Q195.69 13.43 196.89 13.43L196.89 13.43Q197.72 13.43 198.53 13.62Q199.33 13.80 199.95 14.17L199.95 14.17L199.22 15.93Q198.01 15.28 196.88 15.28L196.88 15.28Q196.17 15.28 195.85 15.49Q195.53 15.70 195.53 16.04L195.53 16.04Q195.53 16.37 195.91 16.54Q196.30 16.71 197.15 16.89L197.15 16.89Q198.11 17.10 198.74 17.33Q199.37 17.56 199.83 18.07Q200.29 18.58 200.29 19.46L200.29 19.46Q200.29 20.21 199.87 20.83Q199.46 21.44 198.61 21.80Q197.77 22.17 196.57 22.17L196.57 22.17Q195.55 22.17 194.59 21.92Q193.63 21.67 193.03 21.24Z" fill="#FFFFFF" x="138.25"/></svg>