<svg xmlns="http://www.w3.org/2000/svg" width="245.09000000000003" height="35" viewBox="0 0 245.09000000000003 35"><rect class="svg__rect" x="0" y="0" width="130.86" height="35" fill="#31C4F3"/><rect class="svg__rect" x="128.86" y="0" width="116.23000000000002" height="35" fill="#389AD5"/><path class="svg__text" d="M13.78 19.42L13.78 19.42L15.27 19.42Q15.27 20.15 15.75 20.55Q16.23 20.95 17.12 20.95L17.12 20.95Q17.90 20.95 18.29 20.63Q18.68 20.32 18.68 19.80L18.68 19.80Q18.68 19.24 18.28 18.94Q17.89 18.63 16.85 18.32Q15.82 18.01 15.21 17.63L15.21 17.63Q14.05 16.90 14.05 15.72L14.05 15.72Q14.05 14.69 14.89 14.02Q15.73 13.35 17.07 13.35L17.07 13.35Q17.96 13.35 18.66 13.68Q19.36 14.01 19.75 14.61Q20.15 15.22 20.15 15.96L20.15 15.96L18.68 15.96Q18.68 15.29 18.26 14.91Q17.84 14.54 17.06 14.54L17.06 14.54Q16.33 14.54 15.93 14.85Q15.53 15.16 15.53 15.71L15.53 15.71Q15.53 16.18 15.96 16.50Q16.40 16.81 17.39 17.10Q18.39 17.40 18.99 17.78Q19.60 18.16 19.88 18.65Q20.16 19.13 20.16 19.79L20.16 19.79Q20.16 20.86 19.34 21.49Q18.52 22.12 17.12 22.12L17.12 22.12Q16.20 22.12 15.42 21.77Q14.64 21.43 14.21 20.83Q13.78 20.22 13.78 19.42ZM26.13 14.66L23.49 14.66L23.49 13.47L30.26 13.47L30.26 14.66L27.60 14.66L27.60 22L26.13 22L26.13 14.66ZM36.06 18.86L33.19 13.47L34.84 13.47L36.80 17.51L38.76 13.47L40.40 13.47L37.54 18.86L37.54 22L36.06 22L36.06 18.86ZM49.67 22L44.32 22L44.32 13.47L45.80 13.47L45.80 20.82L49.67 20.82L49.67 22ZM59.38 22L53.80 22L53.80 13.47L59.33 13.47L59.33 14.66L55.28 14.66L55.28 17.02L58.78 17.02L58.78 18.19L55.28 18.19L55.28 20.82L59.38 20.82L59.38 22ZM66.03 22L63.57 22L63.57 13.47L66.09 13.47Q67.22 13.47 68.10 13.97Q68.97 14.48 69.45 15.40Q69.93 16.33 69.93 17.52L69.93 17.52L69.93 17.95Q69.93 19.16 69.45 20.08Q68.97 21.00 68.07 21.50Q67.18 22 66.03 22L66.03 22ZM65.05 14.66L65.05 20.82L66.02 20.82Q67.19 20.82 67.81 20.09Q68.43 19.36 68.45 17.99L68.45 17.99L68.45 17.52Q68.45 16.13 67.84 15.40Q67.24 14.66 66.09 14.66L66.09 14.66L65.05 14.66ZM81.76 22L79.79 13.47L81.26 13.47L82.58 19.88L84.21 13.47L85.46 13.47L87.07 19.89L88.38 13.47L89.85 13.47L87.88 22L86.46 22L84.84 15.77L83.18 22L81.76 22ZM95.49 22L94.01 22L94.01 13.47L95.49 13.47L95.49 22ZM101.98 14.66L99.34 14.66L99.34 13.47L106.11 13.47L106.11 14.66L103.45 14.66L103.45 22L101.98 22L101.98 14.66ZM111.35 22L109.87 22L109.87 13.47L111.35 13.47L111.35 17.02L115.16 17.02L115.16 13.47L116.64 13.47L116.64 22L115.16 22L115.16 18.21L111.35 18.21L111.35 22Z" fill="#FFFFFF"/><path class="svg__text" d="M144.84 15.48L142.26 15.48L142.26 13.60L149.78 13.60L149.78 15.48L147.21 15.48L147.21 22L144.84 22L144.84 15.48ZM155.57 22L153.14 22L156.85 13.60L159.20 13.60L162.91 22L160.44 22L159.78 20.37L156.23 20.37L155.57 22ZM158.01 15.93L156.92 18.61L159.09 18.61L158.01 15.93ZM169.44 22L167.07 22L167.07 13.60L169.44 13.60L169.44 22ZM181.00 22L174.62 22L174.62 13.60L177.00 13.60L177.00 20.11L181.00 20.11L181.00 22ZM187.50 22L184.78 13.60L187.23 13.60L188.92 18.96L190.69 13.60L192.88 13.60L194.57 19.01L196.33 13.60L198.60 13.60L195.88 22L193.33 22L191.73 16.89L190.05 22L187.50 22ZM205.49 22L203.11 22L203.11 13.60L205.49 13.60L205.49 22ZM213.00 22L210.67 22L210.67 13.60L212.62 13.60L216.33 18.07L216.33 13.60L218.66 13.60L218.66 22L216.71 22L213.00 17.52L213.00 22ZM227.79 22L223.82 22L223.82 13.60L227.79 13.60Q229.17 13.60 230.24 14.12Q231.31 14.63 231.90 15.58Q232.49 16.53 232.49 17.80L232.49 17.80Q232.49 19.07 231.90 20.02Q231.31 20.97 230.24 21.48Q229.17 22 227.79 22L227.79 22ZM226.20 15.50L226.20 20.10L227.70 20.10Q228.78 20.10 229.43 19.49Q230.08 18.88 230.08 17.80L230.08 17.80Q230.08 16.72 229.43 16.11Q228.78 15.50 227.70 15.50L227.70 15.50L226.20 15.50Z" fill="#FFFFFF" x="141.86"/></svg>